<svg width="22" height="23" viewBox="0 0 22 23" fill="none" xmlns="http://www.w3.org/2000/svg">
<path d="M15.1725 6.84316C20.7447 11.6869 11.2931 17.1824 4.90844 19.2775C4.56049 19.3917 4.22299 19.0983 4.28763 18.7378C5.47376 12.1238 9.6003 1.99942 15.1725 6.84316Z" stroke="black" stroke-width="1.25" stroke-linejoin="round"/>
<path d="M11.2671 10.45C11.5276 10.6765 11.9224 10.6489 12.1488 10.3884C12.3753 10.1279 12.3477 9.7331 12.0872 9.50664L11.2671 10.45ZM8.62561 8.15382L11.2671 10.45L12.0872 9.50664L9.44568 7.21044L8.62561 8.15382Z" fill="black"/>
<path d="M18.4307 3.92403C18.6572 3.66352 18.6296 3.26875 18.369 3.0423C18.1085 2.81584 17.7138 2.84344 17.4873 3.10395L18.4307 3.92403ZM15.1504 7.69757L18.4307 3.92403L17.4873 3.10395L14.207 6.8775L15.1504 7.69757Z" fill="black"/>
<path d="M14.9909 2.91121C14.8886 2.58154 14.5334 2.37877 14.1975 2.45832C13.8616 2.53787 13.6723 2.8696 13.7746 3.19927L14.9909 2.91121ZM16.0366 6.28102L14.9909 2.91121L13.7746 3.19927L14.8203 6.56908L16.0366 6.28102Z" fill="black"/>
<path d="M18.969 6.36931C19.3097 6.42474 19.5599 6.74829 19.5279 7.09198C19.4959 7.43567 19.1937 7.66935 18.853 7.61392L18.969 6.36931ZM15.4865 5.80274L18.969 6.36931L18.853 7.61392L15.3705 7.04735L15.4865 5.80274Z" fill="black"/>
<path d="M7.05203 16.0611C6.79152 15.8346 6.76392 15.4399 6.99037 15.1793C7.21683 14.9188 7.6116 14.8912 7.8721 15.1177L7.05203 16.0611ZM9.31616 18.0292L7.05203 16.0611L7.8721 15.1177L10.1362 17.0859L9.31616 18.0292Z" fill="black"/>
<path d="M10.8084 14.0263C10.5479 13.7998 10.5203 13.4051 10.7467 13.1446C10.9732 12.884 11.3679 12.8564 11.6285 13.0829L10.8084 14.0263ZM13.0725 15.9945L10.8084 14.0263L11.6285 13.0829L13.8926 15.0511L13.0725 15.9945Z" fill="black"/>
</svg>
